<?xml version="1.0" standalone="no"?>
<!DOCTYPE svg PUBLIC "-//W3C//DTD SVG 20010904//EN"
 "http://www.w3.org/TR/2001/REC-SVG-20010904/DTD/svg10.dtd">
<svg version="1.0" xmlns="http://www.w3.org/2000/svg"
 width="500.000000pt" height="500.000000pt" viewBox="0 0 500.000000 500.000000"
 preserveAspectRatio="xMidYMid meet">

<g transform="translate(0.000000,500.000000) scale(0.100000,-0.100000)"
fill="#000000" stroke="none">
<path d="M2170 4914 c-525 -72 -1000 -302 -1379 -669 -214 -208 -364 -413
-495 -676 -117 -235 -191 -471 -233 -739 -22 -144 -25 -528 -4 -665 83 -564
313 -1028 701 -1415 388 -389 856 -621 1415 -702 138 -20 532 -17 673 6 535
84 988 311 1366 684 437 432 689 988 725 1597 35 611 -147 1188 -529 1677 -84
107 -271 295 -380 382 -364 288 -815 476 -1265 526 -128 14 -471 11 -595 -6z
m-124 -1231 c71 -23 144 -70 173 -112 13 -18 61 -185 131 -457 61 -236 116
-446 121 -466 6 -22 16 -38 24 -38 8 0 15 2 15 5 0 3 50 202 111 442 85 337
117 446 135 471 34 44 183 115 314 148 90 22 133 27 297 31 269 7 418 -18 487
-82 l26 -24 0 -1129 c0 -930 -2 -1132 -13 -1141 -50 -41 -249 -70 -537 -78
-288 -8 -399 14 -416 84 -11 40 23 650 51 926 5 43 3 57 -7 57 -9 0 -39 -130
-102 -447 -49 -247 -95 -460 -102 -474 -28 -57 -147 -84 -339 -77 -131 5 -156
13 -174 56 -7 16 -54 232 -106 481 -51 249 -96 455 -99 458 -18 18 -17 -31 3
-279 27 -344 44 -665 37 -694 -4 -14 -23 -30 -48 -42 -81 -38 -175 -47 -503
-47 -327 0 -363 4 -401 46 -18 20 -19 61 -19 1139 l0 1118 23 25 c76 80 326
128 652 123 174 -2 214 -6 266 -23z"/>
</g>
</svg>
